<?xml version="1.0" standalone="no"?>
<!DOCTYPE svg PUBLIC "-//W3C//DTD SVG 20010904//EN"
 "http://www.w3.org/TR/2001/REC-SVG-20010904/DTD/svg10.dtd">
<svg version="1.0" xmlns="http://www.w3.org/2000/svg"
 width="1280.000000pt" height="856.000000pt" viewBox="0 0 1280.000000 856.000000"
 preserveAspectRatio="xMidYMid meet">
<metadata>
Created by potrace 1.15, written by Peter Selinger 2001-2017
</metadata>
<g transform="translate(0.000000,856.000000) scale(0.100000,-0.100000)"
fill="#000000" stroke="none">
<path d="M3093 8125 c-3 -9 16 -76 42 -150 63 -180 65 -176 -87 -225 -127 -41
-180 -68 -248 -128 -25 -21 -109 -78 -186 -126 -78 -47 -168 -106 -200 -129
-195 -144 -350 -342 -534 -677 -34 -63 -79 -144 -99 -180 -43 -77 -68 -134
-48 -109 25 32 61 31 136 -7 86 -43 141 -102 141 -151 0 -32 0 -33 19 -14 24
24 205 82 361 116 69 15 165 40 215 55 49 16 90 28 92 26 1 -1 -9 -18 -23 -37
-17 -23 -24 -43 -21 -62 3 -25 1 -28 -19 -24 -12 2 -29 0 -36 -4 -8 -6 3 -9
29 -9 40 0 43 -2 63 -47 18 -42 19 -48 5 -69 -8 -13 -15 -41 -15 -64 0 -34 -6
-45 -40 -76 -35 -32 -40 -42 -40 -80 0 -23 5 -55 10 -70 8 -21 7 -31 -5 -44
-8 -9 -15 -26 -15 -37 0 -11 -7 -26 -16 -34 -13 -10 -14 -24 -8 -73 15 -130
-2 -173 -85 -212 -45 -21 -71 -43 -71 -61 0 -10 13 -4 37 16 52 43 64 39 22
-6 -18 -21 -24 -30 -13 -20 21 18 22 18 28 -25 8 -51 20 -73 35 -64 14 9 14
49 0 63 -6 6 -9 17 -7 25 3 7 15 -6 28 -31 l22 -45 -26 -22 c-34 -30 -33 -34
9 -34 33 0 46 -12 26 -25 -6 -3 -17 -19 -25 -36 -11 -23 -12 -28 -2 -20 7 6
27 8 44 5 29 -6 29 -7 12 -24 -10 -10 -24 -20 -31 -23 -8 -3 -5 -6 9 -6 12 -1
22 -5 22 -11 0 -5 7 -10 15 -10 8 0 15 -6 15 -12 1 -7 11 0 24 16 l23 28 17
-23 c9 -13 16 -29 16 -36 0 -14 27 -28 72 -37 22 -5 35 -21 63 -74 41 -79 52
-95 82 -110 13 -8 25 -26 29 -46 6 -32 56 -96 75 -96 5 0 9 -12 9 -27 0 -15 7
-52 16 -84 l16 -57 -40 -99 c-22 -54 -62 -150 -90 -213 -48 -112 -94 -269
-106 -360 -28 -213 -36 -413 -30 -759 3 -201 8 -369 10 -373 3 -4 32 -8 65 -8
46 0 59 -3 59 -15 0 -8 7 -15 15 -15 12 0 15 -13 15 -57 0 -109 -47 -474 -79
-618 -63 -284 -65 -411 -11 -749 44 -284 65 -470 57 -527 -4 -29 -18 -54 -55
-94 -78 -85 -82 -111 -47 -255 11 -48 15 -106 13 -224 -2 -119 1 -161 10 -164
6 -2 13 -2 14 0 1 2 4 86 7 187 5 138 9 185 19 189 10 3 11 -22 6 -126 -5 -96
-4 -131 5 -137 7 -4 14 -5 17 -2 3 2 8 59 11 126 5 93 9 121 20 121 28 0 122
-109 192 -222 40 -65 82 -124 94 -133 26 -18 131 -20 279 -4 112 12 138 21
138 46 0 9 7 24 16 34 38 42 -18 87 -171 138 -104 35 -106 38 -107 151 0 41
-6 96 -13 123 -25 86 -29 203 -11 327 33 224 82 388 214 710 33 80 78 200 102
267 25 74 56 141 79 172 57 79 123 190 137 230 8 25 12 100 12 236 0 236 6
292 34 301 15 4 18 12 14 27 -22 75 -25 71 61 91 43 10 91 22 107 27 16 5 42
9 58 9 29 0 30 1 23 43 -4 23 -23 116 -42 207 -20 91 -41 194 -48 230 -19 101
-92 398 -140 575 -45 165 -69 292 -80 430 -4 44 -13 115 -19 158 l-13 77 144
141 c138 135 144 142 137 173 -9 42 -41 103 -56 109 -8 2 6 23 37 53 56 55
125 148 125 169 0 8 -4 17 -10 20 -5 3 -10 18 -10 32 0 17 -7 27 -20 30 -14 4
-19 11 -15 23 4 12 -4 26 -24 43 -23 19 -30 34 -33 68 -3 42 -4 44 -33 43 -30
-1 -31 1 -64 95 -18 53 -42 104 -52 114 -11 10 -19 29 -19 42 0 13 -6 30 -13
37 -19 20 -319 840 -310 848 14 13 293 117 413 154 163 50 281 78 302 73 10
-3 16 -1 13 3 -17 27 73 100 265 217 311 189 547 297 598 274 34 -16 24 3 -17
31 -42 28 -84 109 -85 163 -1 36 2 40 29 46 l30 6 -28 11 c-16 7 -31 12 -34
12 -3 0 -111 43 -242 95 -329 131 -561 186 -796 188 -126 1 -199 -8 -406 -49
-70 -13 -160 -26 -200 -27 -48 -2 -103 -13 -157 -31 -45 -15 -89 -26 -96 -23
-7 3 -25 36 -39 74 -89 239 -99 257 -114 218z m436 -1514 c-12 -35 -9 -41 34
-59 27 -12 29 -11 46 28 l18 41 21 -58 c12 -32 81 -220 153 -418 74 -200 133
-378 134 -400 1 -22 10 -60 19 -84 19 -52 19 -51 4 -51 -10 0 -13 -24 -13 -84
0 -46 -2 -87 -5 -89 -3 -3 -41 12 -85 34 -44 21 -86 39 -92 39 -7 0 -13 7 -13
15 0 9 -7 30 -16 48 -9 17 -21 67 -26 111 -7 65 -5 93 9 148 16 64 16 69 0 97
-9 16 -17 36 -17 45 0 23 -35 89 -55 106 -9 7 -33 39 -52 69 -20 31 -38 58
-40 60 -1 2 -9 -2 -18 -9 -13 -11 -15 -7 -17 26 -1 22 -1 55 1 74 1 19 -7 64
-19 99 -11 35 -20 74 -20 88 0 13 -7 40 -15 60 -8 19 -15 41 -15 47 0 10 81
58 88 51 1 -1 -3 -16 -9 -34z m39 -590 c5 -74 0 -74 -33 -2 -19 41 -21 50 -9
55 8 3 14 16 14 28 1 50 22 -14 28 -81z m-128 -158 c0 -25 -1 -26 -16 -11 -9
9 -13 21 -10 27 13 20 26 11 26 -16z m494 -655 c-9 -32 -27 -20 -20 13 3 17 6
41 7 53 1 13 4 8 10 -14 4 -19 6 -43 3 -52z m-487 -2878 c-4 -88 -5 -93 -71
-222 -37 -72 -74 -141 -82 -152 -13 -19 -14 -20 -14 -1 0 21 18 82 31 105 29
51 69 142 69 159 0 11 4 22 9 25 7 5 29 74 45 149 12 52 17 26 13 -63z"/>
</g>
</svg>
